<svg xmlns="http://www.w3.org/2000/svg" xmlns:xlink="http://www.w3.org/1999/xlink" version="1.1" x="0px" y="0px" viewBox="0 0 100 125" enable-background="new 0 0 100 100" xml:space="preserve"><g><path d="M47.562,73.964c0.154,0.743,0.145,1.51-0.073,2.256c-0.183,0.693-0.56,1.34-1.066,1.886   c-1.738,1.742-4.571,1.793-6.338,0.087l-9.654-9.466l-1.694,2.641l9.664,9.46c2.394,2.322,7.6,2.177,9.955-0.212   c0.813-0.835,1.967-2.723,2.211-3.818l24.257,0.02c2.486,0,5.143,2.515,5.143,4.991c0,2.51-1.334,5.782-5.253,5.782H36.532   c-2.91,0-5.459-2.273-6.856-3.456L11.292,69.14L0.02,69.189L0,51.943h0.094v-0.146h22.488c0,0,2.355,0.054,3.975,0.992   c1.494,0.874,2.826,2.146,2.826,2.146l16.928,16.867C46.929,72.388,47.354,73.129,47.562,73.964z"/><path d="M66.713,28.179c-0.191-0.339-0.479-0.566-0.813-0.648c-0.024,0-3.013-0.688-2.805-5.298   c0.065-1.586,0.845-2.359,2.109-3.48c1.222-1.091,2.747-2.456,2.81-5.105c0.126-5.497-3.654-8.307-3.695-8.333   c-0.198-0.157-0.435-0.236-0.671-0.236c-0.425,0-0.817,0.25-1.057,0.67c-0.177,0.323-0.239,0.704-0.174,1.08   c0.067,0.38,0.259,0.709,0.54,0.92c0.461,0.381,2.623,2.358,2.549,5.826c-0.02,1.193-0.676,1.833-1.832,2.873   c-1.253,1.111-2.956,2.635-3.094,5.635c-0.247,5.631,3.051,7.896,4.827,8.302l0.246,0.036c0.599,0,1.12-0.489,1.228-1.17   C66.946,28.875,66.887,28.499,66.713,28.179z"/><path d="M74.018,11.314c-0.189-0.113-0.409-0.177-0.631-0.177c-0.439,0-0.851,0.235-1.079,0.613   c-0.165,0.279-0.218,0.604-0.144,0.922c0.076,0.339,0.28,0.618,0.567,0.8c0.016,0.007,1.984,1.205,1.926,3.45   c-0.016,0.577-0.407,0.905-1.358,1.578c-1.067,0.75-2.526,1.774-2.646,3.891c-0.216,3.863,2.61,5.41,4.136,5.689l0.234,0.024   c0.599,0,1.12-0.435,1.229-1.028c0.055-0.327-0.013-0.653-0.193-0.928c-0.191-0.284-0.479-0.472-0.818-0.532   c-0.089-0.018-2.223-0.418-2.078-3.079c0.049-0.856,0.604-1.294,1.586-1.992c0.999-0.704,2.372-1.677,2.42-3.563   C77.271,13.31,74.15,11.395,74.018,11.314z"/></g><g><path d="M95.577,42.271c-3.168-10.043-14.106-11.31-32.858-4.673c-13.118,4.642-23.493,12.717-20.715,21.55   c3.167,10.048,17.661,15.763,32.455,11.1C89.251,65.587,98.741,52.315,95.577,42.271z M53.099,56.476   c-0.927,0.314-1.931-0.179-2.248-1.105c-0.315-0.921,0.174-1.926,1.101-2.243c0.93-0.315,1.928,0.181,2.244,1.104   C54.513,55.152,54.022,56.159,53.099,56.476z M61.512,57.509c-0.927,0.314-1.931-0.179-2.247-1.105   c-0.313-0.92,0.177-1.928,1.101-2.245c0.929-0.313,1.931,0.179,2.247,1.104C62.926,56.186,62.434,57.192,61.512,57.509z    M71.646,50.464c-0.315-0.924,0.176-1.929,1.101-2.247c0.929-0.313,1.93,0.179,2.247,1.101c0.315,0.927-0.175,1.931-1.099,2.25   C72.967,51.881,71.962,51.389,71.646,50.464z M74.483,65.188c-0.929,0.316-1.935-0.176-2.249-1.101   c-0.316-0.927,0.176-1.931,1.098-2.251c0.93-0.315,1.934,0.181,2.25,1.103C75.898,63.866,75.405,64.869,74.483,65.188z    M78.522,44.737c-0.925,0.311-1.934-0.179-2.25-1.105c-0.314-0.922,0.179-1.934,1.098-2.245c0.93-0.319,1.934,0.179,2.249,1.099   C79.937,43.412,79.443,44.415,78.522,44.737z"/><path d="M36.156,52.071c-0.132,0-0.268-0.02-0.403-0.064c-0.668-0.223-1.03-0.944-0.811-1.612c0.062-0.185,1.523-4.535,4.323-7.642   c2.341-2.609,3.784-3.485,5.314-4.412l0.898-0.552c0.594-0.385,1.382-0.204,1.762,0.396c0.379,0.594,0.2,1.385-0.394,1.762   l-0.941,0.579c-1.479,0.898-2.65,1.607-4.74,3.936c-2.435,2.704-3.782,6.695-3.796,6.736   C37.191,51.733,36.691,52.071,36.156,52.071L36.156,52.071z"/><path d="M83.802,75.41c-0.45,0-0.888-0.239-1.122-0.661c-0.34-0.619-0.113-1.396,0.505-1.736c0.041-0.021,4.229-2.355,8.059-6.51   c3.372-3.652,4.349-6.452,4.359-6.479c0.227-0.669,0.95-1.017,1.616-0.804c0.666,0.225,1.028,0.944,0.809,1.61   c-0.046,0.132-1.122,3.306-4.906,7.406c-4.125,4.475-8.521,6.915-8.706,7.016C84.22,75.358,84.01,75.41,83.802,75.41L83.802,75.41z   "/><path d="M90.11,78.721c-0.414,0-0.82-0.2-1.066-0.572c-0.391-0.589-0.229-1.381,0.359-1.769c0.054-0.036,5.325-3.558,7.666-7.426   c0.362-0.603,1.144-0.803,1.755-0.433c0.603,0.365,0.796,1.15,0.431,1.755c-2.639,4.366-8.205,8.077-8.442,8.234   C90.596,78.653,90.352,78.721,90.11,78.721L90.11,78.721z"/></g></svg>