<svg id="Layer_1" xmlns="http://www.w3.org/2000/svg" viewBox="0 0 579.2 518.7"><style>.st2{fill:#337201}.st3{fill:#c4af9b}.st4{fill:#735853}.st5{fill:none;stroke:#000;stroke-width:3;stroke-miterlimit:10}.st6{fill:#04223a}.st7{fill:#a22d29}</style><g id="pongs"><g id="handle_copy"><g id="handle_x5F_ring_copy"><g id="XMLID_1_"><path class="st2" d="M401.1 230.7c-19 31.3-51.3 34.6-90.5 34.9-7.1.1-14.4 0-21.9 0h-21.4c-39.9-.3-72-3.4-90.8-35.2l-.1-.1c-11-18.5-17.4-46.7-18.3-89.4C156.6 66.7 214.4 1.5 288.7 1.5c74.2 0 130.2 60.2 130.4 134.5.1 45.8-6.4 75.5-18 94.7z"/><path class="st3" d="M310.5 265.6c39.2-.3 71.6-3.6 90.5-34.9-4.1 8.8-26 34.1-48.2 41.6-19.7 6.6-39.6 12.6-41.9 32 0 .1-.2 5-.3 12.6l-.1-51.3z"/><path class="st4" d="M312.8 422.4c-.1.1-.1.1 0 0 0 1-.6 1.8-1.4 2-7.4 2-14.9 3-22.4 3-7.5 0-15.1-1-22.4-3-.9-.2-1.5-1.1-1.4-2 .4-7 1.8-36.8 2.3-63.7.3-16 .1-33.2-.2-43.8l.1-49.2c6.9.1 14 0 21.4 0h21.9v51.2c-.1 10.7-.4 26.8-.1 41.9.4 26.9 1.8 56.6 2.2 63.6zm-13.2-31.7v-55c0-3-1.2-5.6-3.2-7.6-1.9-1.9-4.6-3.2-7.6-3.2-5.9 0-10.7 4.8-10.7 10.7v55c0 5.9 4.8 10.7 10.7 10.7 5.9-.1 10.7-4.7 10.8-10.6z"/><path class="st2" d="M299.6 335.7v55c0 5.9-4.8 10.7-10.7 10.7-5.9-.1-10.7-4.8-10.7-10.7v-55c0-5.9 4.8-10.7 10.7-10.7 3 0 5.6 1.2 7.6 3.2 1.8 1.8 3.1 4.5 3.1 7.5z"/><path class="st3" d="M267.3 265.6l-.2 49.3c-.1-6.4-.3-10.5-.3-10.6-2.3-19.4-22.2-25.5-41.9-32-22.5-7.5-44.6-33.3-48.4-41.9 18.9 31.9 51 35 90.8 35.2z"/><g><path class="st5" d="M176.5 230.4c-11-18.5-17.4-46.7-18.3-89.4C156.6 66.7 214.4 1.5 288.7 1.5c74.2 0 130.2 60.2 130.4 134.5.1 46-6.4 75.6-18 94.8-19 31.3-51.3 34.6-90.5 34.9-7.1.1-14.4 0-21.9 0h-21.4c-39.8-.3-71.9-3.4-90.8-35.3"/><path class="st5" d="M267.1 315c.2 10.7.5 27.8.2 43.8-.5 26.9-2 56.7-2.3 63.7-.1.9.6 1.7 1.4 2 7.4 2 14.9 3 22.4 3 7.5 0 15.1-1 22.4-3 .8-.3 1.4-1 1.4-1.8v-.1c-.4-7-1.8-36.7-2.3-63.6-.2-15.1-.1-31.2.1-41.9.1-7.5.3-12.4.3-12.6 2.3-19.4 22.2-25.5 41.9-32 22.2-7.4 44.1-32.7 48.2-41.6.1-.1.1-.3.2-.4M176.5 230.4c3.7 8.6 25.9 34.4 48.4 41.9 19.7 6.6 39.6 12.6 41.9 32 0 .1.1 4.2.3 10.6"/><path class="st5" d="M267.1 315.4V314.8l.2-49.1M310.6 316.9v-51.2M288.9 401.4c-5.9 0-10.7-4.8-10.7-10.7v-55c0-5.9 4.8-10.7 10.7-10.7 3 0 5.6 1.2 7.6 3.2 1.9 1.9 3.2 4.6 3.2 7.6v55c-.2 5.8-5 10.6-10.8 10.6z"/></g></g><g id="XMLID_2_"><path class="st6" d="M279.9 231c8.7 35.5-11.8 60.8-39.3 88.7-5 5.1-10.2 10.2-15.5 15.5L210 350.3c-28.4 28-53.3 48.5-89.1 39.3h-.1c-20.8-5.3-45.3-20.7-76.2-50.3-53.6-51.4-58.8-138.4-6.3-190.9s134.7-49.5 187.3 2.9c32.6 32.4 48.9 58 54.3 79.7z"/><path class="st3" d="M240.6 319.7c27.5-27.9 48.1-53.2 39.3-88.7 3.3 9.1 5.7 42.5-4.7 63.5-9.3 18.6-19.1 36.9-7 52.3.1.1 3.4 3.7 8.7 9.1l-36.3-36.2z"/><path class="st4" d="M353 429.1s.1 0 0 0c.7.7.8 1.7.4 2.4-3.8 6.6-8.4 12.7-13.7 18-5.3 5.3-11.4 10-18 13.7-.8.5-1.8.3-2.4-.4-4.7-5.2-24.7-27.3-43.4-46.7-11.1-11.5-23.4-23.5-31.1-30.8l-34.8-35c4.9-4.8 9.9-9.9 15.1-15.1l15.5-15.5.1.1 36.1 36.1c7.5 7.7 18.7 19.2 29.6 29.7 19.4 18.7 41.4 38.7 46.6 43.5zM321.2 416l-38.9-38.9c-2.1-2.1-4.8-3.1-7.6-3.1-2.7 0-5.5 1-7.6 3.1-4.2 4.2-4.2 11 0 15.1l38.9 38.9c4.2 4.2 11 4.2 15.1 0 4.3-4.2 4.3-11 .1-15.1z"/><path class="st6" d="M282.3 377l38.9 38.9c4.2 4.2 4.2 11 0 15.1-4.2 4.2-11 4.2-15.1 0l-38.9-38.9c-4.2-4.2-4.2-11 0-15.1 2.1-2.1 4.8-3.1 7.6-3.1 2.7 0 5.4 1 7.5 3.1z"/><path class="st3" d="M210 350.3l34.7 35c-4.6-4.4-7.6-7.2-7.7-7.3-15.4-12.1-33.7-2.3-52.3 7-21.2 10.6-55.1 8-63.8 4.6 35.8 9.2 60.7-11.3 89.1-39.3z"/><g><path class="st5" d="M120.8 389.6c-20.8-5.3-45.3-20.7-76.2-50.3-53.6-51.4-58.8-138.4-6.3-190.9s134.7-49.5 187.3 2.9c32.6 32.4 48.9 58 54.3 79.8 8.7 35.5-11.8 60.8-39.3 88.7-5 5.1-10.2 10.2-15.5 15.5L210 350.4c-28.4 27.9-53.3 48.4-89.2 39.2"/><path class="st5" d="M244.7 385.3c7.7 7.4 20 19.3 31.1 30.8 18.7 19.4 38.7 41.5 43.4 46.7.6.7 1.6.8 2.4.4 6.6-3.8 12.7-8.4 18-13.7 5.3-5.3 10-11.4 13.7-18 .4-.8.3-1.7-.3-2.3l-.1-.1c-5.2-4.7-27.2-24.7-46.6-43.4-10.8-10.5-22.1-22-29.6-29.7-5.2-5.4-8.6-9-8.7-9.1-12.1-15.4-2.3-33.7 7-52.3 10.5-20.9 8.1-54.3 4.7-63.5 0-.1-.1-.3-.1-.4M120.8 389.6c8.7 3.4 42.6 6 63.8-4.6 18.6-9.3 36.9-19.1 52.3-7 .1.1 3.1 2.9 7.7 7.3"/><path class="st5" d="M245 385.6l-.3-.3h-.1l-34.6-35M276.8 355.9l-36.2-36.1M321.2 431.1c-4.2 4.2-11 4.2-15.1 0l-38.9-38.9c-4.2-4.2-4.2-11 0-15.1 2.1-2.1 4.8-3.1 7.6-3.1 2.7 0 5.5 1 7.6 3.1l38.9 38.9c4.1 4.1 4.1 10.9-.1 15.1z"/></g></g><g id="XMLID_3_"><path class="st7" d="M457.2 389.3c-35.5 8.7-60.8-11.8-88.7-39.3-5.1-5-10.2-10.2-15.5-15.5l-15.1-15.1c-28-28.4-48.5-53.3-39.3-89.1v-.1c5.3-20.8 20.7-45.3 50.3-76.2 51.4-53.6 138.4-58.8 190.9-6.3s49.5 134.7-2.9 187.3c-32.3 32.5-57.9 48.9-79.7 54.3z"/><path class="st3" d="M368.5 349.9c27.9 27.5 53.2 48.1 88.7 39.3-9.1 3.3-42.5 5.7-63.5-4.7-18.6-9.3-36.9-19.1-52.3-7-.1.1-3.7 3.4-9.1 8.7l36.2-36.3z"/><path class="st4" d="M259.2 462.4c-.1 0-.1 0 0 0-.7.7-1.7.8-2.4.4-6.6-3.8-12.7-8.4-18-13.7-5.3-5.3-10-11.4-13.7-18-.5-.8-.3-1.8.4-2.4 5.2-4.7 27.3-24.7 46.7-43.4 11.5-11.1 23.5-23.4 30.8-31.1l34.9-34.7c4.8 4.9 9.9 9.9 15.1 15.1l15.5 15.5-.1.1-36.1 36.1c-7.7 7.5-19.2 18.7-29.7 29.6-18.7 19.3-38.7 41.2-43.4 46.5zm13.1-31.8l38.9-38.9c2.1-2.1 3.1-4.8 3.1-7.6 0-2.7-1-5.5-3.1-7.6-4.2-4.2-11-4.2-15.1 0l-38.9 38.9c-4.2 4.2-4.2 11 0 15.1s10.9 4.2 15.1.1z"/><path class="st7" d="M311.2 391.7l-38.9 38.9c-4.2 4.2-11 4.2-15.1 0s-4.2-11 0-15.1l38.9-38.9c4.2-4.2 11-4.2 15.1 0 2.1 2.1 3.1 4.8 3.1 7.6 0 2.6-1 5.4-3.1 7.5z"/><path class="st3" d="M337.9 319.3l-35 34.7c4.4-4.6 7.2-7.6 7.3-7.7 12.1-15.4 2.3-33.7-7-52.3-10.6-21.2-8-55.1-4.6-63.8-9.2 35.9 11.3 60.8 39.3 89.1z"/><g><path class="st5" d="M298.6 230.2c5.3-20.8 20.7-45.3 50.3-76.2 51.4-53.6 138.4-58.8 190.9-6.3s49.5 134.7-2.9 187.3c-32.4 32.6-58 48.9-79.8 54.3-35.5 8.7-60.8-11.8-88.7-39.3-5.1-5-10.2-10.2-15.5-15.5l-15.1-15.1c-27.9-28.4-48.4-53.3-39.2-89.2"/><path class="st5" d="M302.9 354.1c-7.4 7.7-19.3 20-30.8 31.1-19.4 18.7-41.5 38.7-46.7 43.4-.7.6-.8 1.6-.4 2.4 3.8 6.6 8.4 12.7 13.7 18s11.4 10 18 13.7c.8.4 1.7.3 2.3-.3l.1-.1c4.7-5.2 24.7-27.2 43.4-46.6 10.5-10.8 22-22.1 29.7-29.6 5.4-5.2 9-8.6 9.1-8.7 15.4-12.1 33.7-2.3 52.3 7 20.9 10.5 54.3 8.1 63.5 4.7.1 0 .3-.1.4-.1M298.6 230.2c-3.4 8.7-6 42.6 4.6 63.8 9.3 18.6 19.1 36.9 7 52.3-.1.1-2.9 3.1-7.3 7.7"/><path class="st5" d="M302.6 354.4l.3-.3.1-.1 34.9-34.6M332.3 386.2l36.2-36.2M257.2 430.6c-4.2-4.2-4.2-11 0-15.1l38.9-38.9c4.2-4.2 11-4.2 15.1 0 2.1 2.1 3.1 4.8 3.1 7.6 0 2.7-1 5.5-3.1 7.6l-38.9 38.9c-4.2 4-11 4-15.1-.1z"/></g></g></g></g></g></svg>