<svg id="Layer_1" data-name="Layer 1" xmlns="http://www.w3.org/2000/svg" viewBox="0 0 354.99 355.95"><defs><style>.cls-1{fill:#ef8917}.cls-2{fill:#fff}.cls-4{fill:none;stroke:#000;stroke-miterlimit:10;stroke-width:3px}</style></defs><g id="pongs"><g id="handle_copy" data-name="handle copy"><g id="handle_ring_copy" data-name="handle_ring copy"><path class="cls-1" d="M279.85 122c8.7 35.5-11.8 60.8-39.3 88.7-5 5.1-10.2 10.2-15.5 15.5L210 241.32c-28.4 28-53.3 48.5-89.1 39.3h-.1c-20.8-5.3-45.3-20.7-76.2-50.3-53.6-51.4-58.8-138.4-6.3-190.9s134.7-49.5 187.3 2.9c32.55 32.4 48.85 58 54.25 79.68z"/><path class="cls-2" d="M240.55 210.72c27.5-27.9 48.1-53.2 39.3-88.7 3.3 9.1 5.7 42.5-4.7 63.5-9.3 18.6-19.1 36.9-7 52.3.1.1 3.4 3.7 8.7 9.1l-36.3-36.2z"/><path d="M353 320.12a2 2 0 0 1 .4 2.4 86.47 86.47 0 0 1-13.7 18 83.16 83.16 0 0 1-18 13.7 1.85 1.85 0 0 1-2.4-.4c-4.7-5.2-24.7-27.3-43.4-46.7-11.1-11.5-23.4-23.5-31.1-30.8l-34.8-35c4.9-4.8 9.9-9.9 15.1-15.1l15.5-15.5.1.1 36.1 36.1c7.5 7.7 18.7 19.2 29.6 29.7 19.35 18.7 41.35 38.7 46.6 43.5zM321.15 307l-38.9-38.9a10.58 10.58 0 0 0-7.6-3.1 10.75 10.75 0 0 0-7.6 3.1 10.62 10.62 0 0 0 0 15.1l38.9 38.9a10.71 10.71 0 0 0 15.2-15.1z" fill="#735853"/><path class="cls-1" d="M282.25 268l38.9 38.9a10.68 10.68 0 1 1-15.1 15.1l-38.9-38.9a10.68 10.68 0 0 1 15.1-15.1z"/><path class="cls-2" d="M210 241.32l34.7 35c-4.6-4.4-7.6-7.2-7.7-7.3-15.4-12.1-33.7-2.3-52.3 7-21.2 10.6-55.1 8-63.8 4.6 35.75 9.2 60.65-11.3 89.1-39.3z"/><path class="cls-4" d="M120.75 280.62c-20.8-5.3-45.3-20.7-76.2-50.3-53.6-51.4-58.8-138.4-6.3-190.9s134.7-49.5 187.3 2.9c32.6 32.4 48.9 58 54.3 79.8 8.7 35.5-11.8 60.8-39.3 88.7-5 5.1-10.2 10.2-15.5 15.5L210 241.42c-28.4 27.9-53.3 48.4-89.2 39.2"/><path class="cls-4" d="M244.65 276.32c7.7 7.4 20 19.3 31.1 30.8 18.7 19.4 38.7 41.5 43.4 46.7a2 2 0 0 0 2.4.4 86.47 86.47 0 0 0 18-13.7 83.16 83.16 0 0 0 13.7-18 2 2 0 0 0-.3-2.3l-.1-.1c-5.2-4.7-27.2-24.7-46.6-43.4-10.8-10.5-22.1-22-29.6-29.7-5.2-5.4-8.6-9-8.7-9.1-12.1-15.4-2.3-33.7 7-52.3 10.5-20.9 8.1-54.3 4.7-63.5 0-.1-.1-.3-.1-.4M120.75 280.62c8.7 3.4 42.6 6 63.8-4.6 18.6-9.3 36.9-19.1 52.3-7 .1.1 3.1 2.9 7.7 7.3"/><path class="cls-4" d="M244.95 276.62l-.3-.3h-.1l-34.6-35M276.75 246.92l-36.2-36.1M321.15 322.12a10.62 10.62 0 0 1-15.1 0l-38.9-38.9a10.65 10.65 0 0 1 7.6-18.2 10.75 10.75 0 0 1 7.6 3.1l38.9 38.9a10.71 10.71 0 0 1-.1 15.1z"/></g></g></g></svg>